<?xml version="1.0" encoding="UTF-8"?>
<svg width="211px" height="37px" viewBox="0 0 211 37" version="1.1" xmlns="http://www.w3.org/2000/svg" xmlns:xlink="http://www.w3.org/1999/xlink">
    <title>anima</title>
    <g id="Page-1" stroke="none" stroke-width="1" fill="none" fill-rule="evenodd">
        <g id="anima-healthcare" transform="translate(-40.000000, -960.000000)" fill="#FFFFFF" fill-rule="nonzero">
            <g id="anima" transform="translate(40.000000, 960.000000)">
                <path d="M16.992,36.216 C12.048,36.216 7.98,34.56 4.788,31.248 C1.596,27.936 0,23.592 0,18.216 C0,12.936 1.608,8.58 4.824,5.148 C8.04,1.716 12.072,0 16.92,0 C21.624,0 25.248,1.608 27.792,4.824 L27.936,4.752 L27.936,0.504 L36,0.504 L36,35.64 L28.296,35.64 L28.296,31.032 L28.152,30.96 C25.56,34.464 21.84,36.216 16.992,36.216 Z M18.288,28.872 C21.072,28.872 23.436,27.888 25.38,25.92 C27.324,23.952 28.296,21.408 28.296,18.288 C28.296,15.168 27.348,12.552 25.452,10.44 C23.556,8.328 21.168,7.272 18.288,7.272 C15.408,7.272 13.008,8.28 11.088,10.296 C9.168,12.312 8.208,14.976 8.208,18.288 C8.208,21.408 9.144,23.952 11.016,25.92 C12.888,27.888 15.312,28.872 18.288,28.872 Z" id="Shape"></path>
                <path d="M47.152,35.64 L47.152,0.504 L55.216,0.504 L55.216,5.328 L55.36,5.328 C58.336,1.776 62.248,0 67.096,0 C71.128,0 74.284,1.224 76.564,3.672 C78.844,6.12 79.984,9.888 79.984,14.976 L79.984,35.64 L71.92,35.64 L71.92,17.064 C71.92,13.512 71.284,10.992 70.012,9.504 C68.74,8.016 66.832,7.272 64.288,7.272 C61.504,7.272 59.296,8.208 57.664,10.08 C56.032,11.952 55.216,14.592 55.216,18 L55.216,35.64 L47.152,35.64 Z" id="Path"></path>
                <polygon id="Shape" points="91.352 35.64 91.352 0.504 99.416 0.504 99.416 35.64"></polygon>
                <path d="M111.432,35.64 L111.432,0.504 L119.496,0.504 L119.496,5.328 L119.568,5.328 C122.544,1.776 126.192,0 130.512,0 C135.456,0 138.96,1.944 141.024,5.832 L141.168,5.832 C144.192,1.944 148.392,0 153.768,0 C157.704,0 160.74,1.272 162.876,3.816 C165.012,6.36 166.08,10.2 166.08,15.336 L166.08,35.64 L158.016,35.64 L158.016,17.352 C158.016,10.632 155.736,7.272 151.176,7.272 C148.824,7.272 146.868,8.244 145.308,10.188 C143.748,12.132 142.968,14.784 142.968,18.144 L142.968,35.64 L134.904,35.64 L134.904,17.352 C134.904,10.632 132.576,7.272 127.92,7.272 C125.424,7.272 123.396,8.244 121.836,10.188 C120.276,12.132 119.496,14.784 119.496,18.144 L119.496,35.64 L111.432,35.64 Z" id="Path"></path>
                <path d="M191.848,36.216 C186.904,36.216 182.836,34.56 179.644,31.248 C176.452,27.936 174.856,23.592 174.856,18.216 C174.856,12.936 176.464,8.58 179.68,5.148 C182.896,1.716 186.928,0 191.776,0 C196.48,0 200.104,1.608 202.648,4.824 L202.792,4.752 L202.792,0.504 L210.856,0.504 L210.856,35.64 L203.152,35.64 L203.152,31.032 L203.008,30.96 C200.416,34.464 196.696,36.216 191.848,36.216 Z M193.144,28.872 C195.928,28.872 198.292,27.888 200.236,25.92 C202.18,23.952 203.152,21.408 203.152,18.288 C203.152,15.168 202.204,12.552 200.308,10.44 C198.412,8.328 196.024,7.272 193.144,7.272 C190.264,7.272 187.864,8.28 185.944,10.296 C184.024,12.312 183.064,14.976 183.064,18.288 C183.064,21.408 184,23.952 185.872,25.92 C187.744,27.888 190.168,28.872 193.144,28.872 Z" id="Shape"></path>
            </g>
        </g>
    </g>
</svg>