<svg width="72" height="72" viewBox="0 0 72 72" fill="none" xmlns="http://www.w3.org/2000/svg">
<path fill-rule="evenodd" clip-rule="evenodd" d="M0 4C0 1.79086 1.79086 0 4 0H68C70.2091 0 72 1.79086 72 4V68C72 70.2091 70.2091 72 68 72H4C1.79086 72 0 70.2091 0 68V4ZM12 8C9.79086 8 8 9.79086 8 12V60C8 62.2091 9.79086 64 12 64H60C62.2091 64 64 62.2091 64 60V12C64 9.79086 62.2091 8 60 8H12Z" fill="#00DBB6"/>
<path fill-rule="evenodd" clip-rule="evenodd" d="M28 32C30.2091 32 32 30.2091 32 28V24C32 21.7909 33.7909 20 36 20V20C38.2091 20 40 21.7909 40 24V28C40 30.2091 41.7909 32 44 32H48C50.2091 32 52 33.7909 52 36V36C52 38.2091 50.2091 40 48 40H44C41.7909 40 40 41.7909 40 44V48C40 50.2091 38.2091 52 36 52V52C33.7909 52 32 50.2091 32 48V44C32 41.7909 30.2091 40 28 40H24C21.7909 40 20 38.2091 20 36V36C20 33.7909 21.7909 32 24 32H28Z" fill="#00DBB6"/>
</svg>
