<svg width="412" height="72" viewBox="0 0 412 72" fill="none" xmlns="http://www.w3.org/2000/svg">
<path d="M33.2014 72C23.5411 72 15.5924 68.7078 9.35547 62.1233C3.11849 55.5388 0 46.9026 0 36.2147C0 25.7177 3.14194 17.0577 9.42581 10.2346C15.7097 3.41153 23.588 0 33.0607 0C42.252 0 49.3331 3.19682 54.3039 9.59046L54.5853 9.44732V1.00199H70.3418V70.8549H55.2887V61.6938L55.0073 61.5507C49.9427 68.5169 42.6741 72 33.2014 72ZM35.7337 57.3996C41.1734 57.3996 45.7925 55.4433 49.591 51.5308C53.3895 47.6183 55.2887 42.5606 55.2887 36.3579C55.2887 30.1551 53.4364 24.9543 49.7317 20.7555C46.027 16.5567 41.361 14.4573 35.7337 14.4573C30.1063 14.4573 25.4169 16.4612 21.6653 20.4692C17.9137 24.4771 16.0379 29.7734 16.0379 36.3579C16.0379 42.5606 17.8668 47.6183 21.5246 51.5308C25.1824 55.4433 29.9187 57.3996 35.7337 57.3996Z" fill="#00DBB6"/>
<path d="M92.1321 70.8549V1.00199H107.889V10.5924H108.17C113.985 3.53081 121.629 0 131.101 0C138.98 0 145.146 2.4334 149.601 7.3002C154.056 12.167 156.284 19.658 156.284 29.7734V70.8549H140.527V33.9244C140.527 26.8628 139.285 21.8529 136.799 18.8946C134.314 15.9364 130.586 14.4573 125.615 14.4573C120.175 14.4573 115.861 16.3181 112.672 20.0398C109.483 23.7614 107.889 29.0099 107.889 35.7853V70.8549H92.1321Z" fill="#00DBB6"/>
<path d="M178.496 70.8549V1.00195H194.253V70.8549H178.496Z" fill="#00DBB6"/>
<path d="M217.731 70.8549V1.00199H233.488V10.5924H233.629C239.444 3.53081 246.572 0 255.013 0C264.673 0 271.52 3.86481 275.552 11.5944H275.834C281.743 3.86481 289.949 0 300.454 0C308.144 0 314.076 2.52883 318.25 7.58648C322.424 12.6441 324.51 20.2783 324.51 30.4891V70.8549H308.754V34.497C308.754 21.1372 304.299 14.4573 295.389 14.4573C290.793 14.4573 286.971 16.3897 283.923 20.2545C280.875 24.1193 279.351 29.3916 279.351 36.0716V70.8549H263.594V34.497C263.594 21.1372 259.046 14.4573 249.948 14.4573C245.071 14.4573 241.108 16.3897 238.06 20.2545C235.012 24.1193 233.488 29.3916 233.488 36.0716V70.8549H217.731Z" fill="#00DBB6"/>
<path d="M374.86 72C365.199 72 357.251 68.7078 351.014 62.1233C344.777 55.5388 341.658 46.9026 341.658 36.2147C341.658 25.7177 344.8 17.0577 351.084 10.2346C357.368 3.41153 365.246 0 374.719 0C383.91 0 390.991 3.19682 395.962 9.59046L396.243 9.44732V1.00199H412V70.8549H396.947V61.6938L396.666 61.5507C391.601 68.5169 384.332 72 374.86 72ZM377.392 57.3996C382.832 57.3996 387.451 55.4433 391.249 51.5308C395.048 47.6183 396.947 42.5606 396.947 36.3579C396.947 30.1551 395.095 24.9543 391.39 20.7555C387.685 16.5567 383.019 14.4573 377.392 14.4573C371.764 14.4573 367.075 16.4612 363.323 20.4692C359.572 24.4771 357.696 29.7734 357.696 36.3579C357.696 42.5606 359.525 47.6183 363.183 51.5308C366.841 55.4433 371.577 57.3996 377.392 57.3996Z" fill="#00DBB6"/>
</svg>
