<svg width="336" height="163" viewBox="0 0 336 163" fill="none" xmlns="http://www.w3.org/2000/svg">
<path d="M23.934 163C16.9701 163 11.2402 160.622 6.74411 155.867C2.24804 151.111 0 144.874 0 137.155C0 129.574 2.26494 123.319 6.79481 118.392C11.3247 113.464 17.0039 111 23.8326 111C30.4583 111 35.5629 113.309 39.1462 117.926L39.3491 117.823V111.724H50.7076V162.173H39.8562V155.557L39.6533 155.453C36.0024 160.484 30.7626 163 23.934 163ZM25.7594 152.455C29.6808 152.455 33.0106 151.042 35.7488 148.217C38.487 145.391 39.8562 141.738 39.8562 137.258C39.8562 132.779 38.5209 129.023 35.8503 125.99C33.1797 122.958 29.8161 121.441 25.7594 121.441C21.7028 121.441 18.3223 122.889 15.6179 125.783C12.9135 128.678 11.5613 132.503 11.5613 137.258C11.5613 141.738 12.8797 145.391 15.5165 148.217C18.1533 151.042 21.5676 152.455 25.7594 152.455Z" fill="#D8FFF8"/>
<path d="M75.7075 162.173V111.724H87.066V118.65H87.2688C91.4607 113.55 96.9709 111 103.8 111C109.479 111 113.924 112.757 117.136 116.272C120.347 119.787 121.953 125.197 121.953 132.503V162.173H110.594V135.501C110.594 130.401 109.699 126.783 107.907 124.646C106.115 122.51 103.428 121.441 99.8443 121.441C95.9229 121.441 92.8129 122.785 90.5141 125.473C88.2154 128.161 87.066 131.952 87.066 136.845V162.173H75.7075Z" fill="#D8FFF8"/>
<path d="M146.953 162.173V111.724H158.311V162.173H146.953Z" fill="#D8FFF8"/>
<path d="M183.311 162.173V111.724H194.67V118.65H194.771C198.963 113.55 204.102 111 210.186 111C217.15 111 222.086 113.791 224.993 119.374H225.196C229.455 113.791 235.371 111 242.944 111C248.488 111 252.764 112.826 255.773 116.479C258.781 120.132 260.286 125.645 260.286 133.02V162.173H248.927V135.915C248.927 126.266 245.716 121.441 239.293 121.441C235.98 121.441 233.225 122.837 231.027 125.628C228.83 128.419 227.731 132.227 227.731 137.052V162.173H216.373V135.915C216.373 126.266 213.094 121.441 206.535 121.441C203.02 121.441 200.163 122.837 197.966 125.628C195.769 128.419 194.67 132.227 194.67 137.052V162.173H183.311Z" fill="#D8FFF8"/>
<path d="M309.22 163C302.256 163 296.526 160.622 292.03 155.867C287.534 151.111 285.286 144.874 285.286 137.155C285.286 129.574 287.55 123.319 292.08 118.392C296.61 113.464 302.289 111 309.118 111C315.744 111 320.848 113.309 324.432 117.926L324.635 117.823V111.724H335.993V162.173H325.142V155.557L324.939 155.453C321.288 160.484 316.048 163 309.22 163ZM311.045 152.455C314.966 152.455 318.296 151.042 321.034 148.217C323.773 145.391 325.142 141.738 325.142 137.258C325.142 132.779 323.806 129.023 321.136 125.99C318.465 122.958 315.102 121.441 311.045 121.441C306.988 121.441 303.608 122.889 300.903 125.783C298.199 128.678 296.847 132.503 296.847 137.258C296.847 141.738 298.165 145.391 300.802 148.217C303.439 151.042 306.853 152.455 311.045 152.455Z" fill="#D8FFF8"/>
<path fill-rule="evenodd" clip-rule="evenodd" d="M128 26C128 11.6406 139.641 0 154 0H182C196.359 0 208 11.6406 208 26V54C208 68.3594 196.359 80 182 80H154C139.641 80 128 68.3594 128 54V26ZM162.889 8.88889C148.529 8.88889 136.889 20.5295 136.889 34.8889V45.1111C136.889 59.4705 148.53 71.1111 162.889 71.1111H173.111C187.471 71.1111 199.111 59.4705 199.111 45.1111V34.8889C199.111 20.5295 187.47 8.88889 173.111 8.88889H162.889Z" fill="#00DBB6"/>
<path fill-rule="evenodd" clip-rule="evenodd" d="M156.889 35.5556C160.571 35.5556 163.556 32.5708 163.556 28.8889V26.6667C163.556 24.2121 165.545 22.2222 168 22.2222V22.2222C170.455 22.2222 172.444 24.2121 172.444 26.6667V28.8889C172.444 32.5708 175.429 35.5556 179.111 35.5556H181.333C183.788 35.5556 185.778 37.5454 185.778 40V40C185.778 42.4546 183.788 44.4444 181.333 44.4444H179.111C175.429 44.4444 172.444 47.4292 172.444 51.1111V53.3333C172.444 55.7879 170.455 57.7778 168 57.7778V57.7778C165.545 57.7778 163.556 55.7879 163.556 53.3333V51.1111C163.556 47.4292 160.571 44.4444 156.889 44.4444H154.667C152.212 44.4444 150.222 42.4546 150.222 40V40C150.222 37.5454 152.212 35.5556 154.667 35.5556H156.889Z" fill="#00DBB6"/>
</svg>
